<svg width="201" height="200" viewBox="0 0 201 200" fill="none" xmlns="http://www.w3.org/2000/svg">
<path d="M100.5 0L107.585 62.9907L136.96 6.81131L120.795 68.1038L168.497 26.3225L131.266 77.6415L190.85 55.9017L137.581 90.315L201 91.5526L138.888 104.414L197.578 128.46L135.011 118.03L181.045 161.64L126.472 129.328L153.633 186.61L114.427 136.781L119.046 200L100.5 139.382L81.9541 200L86.5728 136.781L47.3672 186.61L74.528 129.328L19.955 161.64L65.9892 118.03L3.42206 128.46L62.1124 104.414L0 91.5526L63.4191 90.315L10.1513 55.9017L69.7356 77.6415L32.5042 26.3225L80.2051 68.1038L64.0399 6.81131L93.4169 62.9907L100.5 0Z" fill="#2C5090"/>
</svg>
